M48
;DRILL file {KiCad 4.0.7} date 07/24/18 12:56:50
;FORMAT={-:-/ absolute / metric / decimal}
FMAT,2
METRIC,TZ
T1C0.150
T2C0.500
T3C0.800
T4C1.000
T5C3.048
%
G90
G05
M71
T1
X108.661Y-103.175
X108.661Y-113.995
X111.404Y-86.614
X111.887Y-77.47
X112.649Y-142.494
X113.538Y-141.224
X113.589Y-142.342
X115.824Y-104.394
X115.951Y-85.471
X117.094Y-82.804
X117.983Y-107.188
X118.11Y-100.203
X118.339Y-143.84
X118.618Y-112.014
X119.126Y-101.727
X120.777Y-106.045
X121.285Y-114.935
X121.92Y-115.951
X122.225Y-142.494
X122.25Y-145.923
X122.682Y-115.316
X122.809Y-97.155
X122.936Y-100.076
X123.038Y-138.532
X123.19Y-116.205
X123.825Y-86.233
X123.825Y-100.457
X124.104Y-138.074
X124.358Y-109.22
X124.913Y-99.656
X125.095Y-81.026
X125.476Y-99.568
X126.086Y-94.996
X127.432Y-106.299
X127.457Y-118.567
X127.686Y-81.407
X128.016Y-99.187
X129.667Y-117.983
X132.944Y-125.984
X132.994Y-138.074
X135.077Y-70.002
X135.077Y-93.497
X135.163Y-99.906
X135.204Y-95.783
X135.331Y-114.96
X135.509Y-119.38
X135.585Y-88.544
X135.585Y-110.642
X135.712Y-64.922
X135.839Y-76.606
X136.83Y-109.271
X137.413Y-95.156
X137.693Y-92.227
X138.151Y-115.341
X138.43Y-121.92
X138.455Y-81.61
X140.413Y-95.156
X142.291Y-142.037
X142.913Y-74.156
X142.913Y-97.406
X142.913Y-120.656
X144.163Y-71.656
X144.163Y-94.656
X144.163Y-118.156
X146.66Y-107.518
X147.269Y-127.406
X148.565Y-66.675
X149.25Y-79.985
X150.673Y-66.675
X152.349Y-102.413
X153.264Y-76.886
X153.975Y-66.548
X154.635Y-130.454
X154.686Y-70.155
X155.489Y-92.983
X156.896Y-76.378
X159.385Y-83.947
X159.413Y-91.156
X159.766Y-70.307
X159.969Y-93.599
X161.011Y-100.584
X161.239Y-98.4
X161.366Y-99.873
X161.569Y-67.183
X161.595Y-96.342
X161.925Y-82.677
X162.027Y-97.765
X164.592Y-128.656
X165.1Y-96.952
X169.413Y-81.906
X169.986Y-94.479
X171.013Y-82.506
X171.913Y-104.406
X172.163Y-94.406
X172.413Y-82.506
X173.482Y-87.503
X173.863Y-90.424
X174.013Y-82.906
X175.362Y-81.61
X175.946Y-142.926
X175.997Y-145.821
X175.997Y-147.193
X176.022Y-144.424
X176.149Y-82.296
X176.149Y-90.424
X176.413Y-104.406
X176.784Y-131.826
X176.784Y-133.223
X176.784Y-134.366
X176.784Y-135.382
X176.784Y-136.271
X176.962Y-87.274
X177.495Y-82.321
X177.597Y-142.977
X177.597Y-142.977
X177.648Y-145.872
X177.648Y-145.872
X177.648Y-147.244
X177.648Y-147.244
X177.673Y-144.475
X177.673Y-144.475
X177.698Y-87.401
X178.181Y-134.366
X178.181Y-135.382
X178.181Y-136.271
X178.308Y-131.826
X178.308Y-133.223
X178.35Y-82.296
X178.892Y-94.336
X178.994Y-145.796
X178.994Y-145.796
X178.994Y-147.168
X178.994Y-147.168
X179.019Y-144.399
X179.019Y-144.399
X179.413Y-72.706
X179.578Y-96.266
X179.883Y-89.052
X180.213Y-118.999
X180.721Y-119.38
X180.721Y-120.142
X180.823Y-75.108
X181.Y-113.69
X181.229Y-118.364
X182.651Y-92.659
X182.88Y-104.775
X182.913Y-105.656
X182.931Y-91.999
X184.023Y-105.156
X184.163Y-101.406
X185.877Y-76.175
X186.268Y-94.082
X186.3Y-92.6
X187.427Y-90.348
T2
X156.261Y-71.171
X157.547Y-71.171
X158.801Y-71.171
T3
X115.201Y-135.441
X117.701Y-135.441
T4
X111.316Y-97.65
X111.316Y-100.19
X111.316Y-102.73
X111.316Y-105.27
X111.316Y-107.81
X111.316Y-110.35
X111.316Y-112.89
X111.316Y-115.43
X113.855Y-96.38
X113.855Y-98.92
X113.855Y-101.46
X113.855Y-104.
X113.855Y-106.54
X113.855Y-109.08
X113.855Y-111.62
X113.855Y-114.16
X116.586Y-126.492
X116.586Y-130.492
X142.037Y-137.338
X148.234Y-64.16
X150.774Y-64.16
X162.814Y-112.522
X162.814Y-115.062
X165.354Y-112.522
X165.354Y-115.062
X167.52Y-65.5
X167.894Y-112.522
X167.894Y-115.062
X170.06Y-65.5
X170.434Y-112.522
X170.434Y-115.062
X172.6Y-65.5
X177.6Y-65.5
X180.14Y-65.5
X182.68Y-65.5
X188.214Y-83.312
X188.468Y-112.268
X188.468Y-114.808
X188.468Y-117.348
X188.468Y-119.888
X188.468Y-122.428
X190.246Y-93.472
X190.246Y-96.012
T5
X109.474Y-122.555
T4
X152.67Y-137.16G85X154.67Y-137.16
G05
X152.67Y-143.16G85X154.67Y-143.16
G05
X158.37Y-141.16G85X158.37Y-139.16
G05
T0
M30
